<svg version="1.1" id="Layer_1" xmlns="http://www.w3.org/2000/svg" xmlns:xlink="http://www.w3.org/1999/xlink" x="0px" y="0px"
	 width="100%" viewBox="0 0 1008 1024" enable-background="new 0 0 1008 1024" xml:space="preserve">
<path fill="#000000" opacity="1.000000" stroke="none" 
	d="
M451.492126,261.426605 
	C466.527283,252.401199 481.404449,246.354065 488.464966,246.368790 
	C489.175446,248.732819 487.076691,249.469437 485.881561,250.605850 
	C462.836334,272.518829 447.541931,298.705750 442.555847,330.347260 
	C438.949493,353.233307 439.364624,375.902924 449.401611,397.406128 
	C456.738281,413.124237 468.273743,425.466553 481.592255,436.369720 
	C500.375397,451.746399 521.292603,463.857605 541.933167,476.401703 
	C567.582031,491.989624 593.075928,507.766266 614.846497,528.765930 
	C634.589417,547.809753 649.636292,569.720886 654.977539,597.048279 
	C664.467529,645.601257 651.136475,688.357178 620.470825,726.212646 
	C603.878357,746.695374 583.303040,761.906677 558.187683,770.562378 
	C555.906372,771.348572 553.640808,772.709839 550.803894,771.663635 
	C550.613037,768.826294 552.994385,767.756042 554.526794,766.270447 
	C578.777405,742.758850 593.900879,714.243713 599.403381,681.078674 
	C607.384033,632.977417 591.806091,593.631104 553.687622,563.060181 
	C531.632263,545.371826 507.209503,531.326782 483.431854,516.272461 
	C460.181488,501.551941 437.138489,486.576385 417.880127,466.570892 
	C401.053284,449.091187 388.971619,428.968658 385.260742,404.789734 
	C381.391449,379.578308 384.651398,354.868439 394.095154,331.195099 
	C405.728302,302.033264 424.777069,278.758759 451.492126,261.426605 
z"/>
<path fill="#000000" opacity="1.000000" stroke="none" 
	d="
M506.417847,697.458984 
	C516.348816,669.452637 514.648193,641.713684 506.636505,614.135925 
	C496.525452,579.332092 478.279694,548.948547 454.912079,521.481995 
	C454.087982,520.513306 452.794861,519.734680 453.285736,518.092346 
	C454.960876,516.946533 456.144653,518.198853 457.285736,519.030762 
	C482.377747,537.323425 506.642578,556.534058 525.963806,581.204224 
	C540.899902,600.275208 550.097351,621.515747 549.047852,646.127563 
	C548.207336,665.836548 541.590088,683.972168 531.236511,700.621887 
	C513.544739,729.072205 490.953705,752.707581 461.734985,769.597046 
	C459.210358,771.056274 456.681610,772.618225 453.118073,772.070007 
	C474.397888,749.742188 495.655945,727.552429 506.417847,697.458984 
z"/>
<path fill="#000000" opacity="1.000000" stroke="none" 
	d="
M584.906494,490.582153 
	C579.390869,489.008789 575.514893,484.991211 571.272583,481.691437 
	C549.389160,464.669678 528.528503,446.541565 512.245911,423.796173 
	C499.547180,406.057098 492.468140,386.519775 493.783813,364.426819 
	C494.845673,346.595520 500.616272,330.206451 509.746521,315.008484 
	C526.372375,287.333527 548.544128,265.161407 576.474487,248.871628 
	C579.668518,247.008774 582.907410,244.852219 586.963135,245.117874 
	C587.649353,247.846375 585.422119,248.471252 584.223328,249.584229 
	C569.133423,263.593903 555.412415,278.729614 545.121765,296.712341 
	C533.737061,316.606812 528.809875,338.037750 529.898315,360.897644 
	C532.069763,406.504303 551.266907,445.196320 578.373840,480.731110 
	C580.735413,483.826935 584.192932,486.223816 584.906494,490.582153 
z"/>
<path fill="#000000" opacity="1.000000" stroke="none" 
	d="
M431.553894,641.421265 
	C428.920258,611.431702 422.184326,582.847656 411.485229,555.242004 
	C405.029877,538.585938 397.097717,522.646973 386.127289,508.392639 
	C385.439301,507.498657 384.515869,506.663208 384.757843,505.273621 
	C386.815094,503.954803 387.887939,505.727051 388.931335,506.743439 
	C410.116608,527.380127 429.395599,549.578369 444.546051,575.124573 
	C456.821686,595.823303 464.527893,617.997986 464.704773,642.233887 
	C464.833252,659.845764 460.269135,676.557434 451.887268,692.031128 
	C434.535461,724.064209 410.553040,749.841187 378.723663,767.941589 
	C375.448212,769.804321 372.137695,772.333374 367.841309,771.763611 
	C367.631348,769.023315 369.774658,768.499023 371.081635,767.416870 
	C388.101013,753.324829 403.727844,738.017883 415.031860,718.735840 
	C426.609222,698.987488 432.101318,677.714783 431.739960,654.875183 
	C431.671478,650.545959 431.635254,646.216187 431.553894,641.421265 
z"/>
<path fill="#000000" opacity="1.000000" stroke="none" 
	d="
M600.133789,306.190918 
	C618.858093,279.786804 640.893188,257.803986 671.335754,244.224564 
	C671.760681,248.254623 669.350159,248.980240 667.858459,250.204208 
	C647.648071,266.786407 630.427856,285.670563 620.316406,310.290131 
	C611.140137,332.632812 609.881409,355.871704 612.041748,379.493988 
	C614.233582,403.459839 619.204468,426.872955 627.103210,449.625977 
	C633.634521,468.439972 641.928467,486.367981 654.080322,502.316162 
	C654.856079,503.334229 655.996582,504.237030 655.768005,505.778809 
	C654.572266,507.067596 653.616211,506.146698 652.815735,505.371613 
	C627.654907,481.009979 605.045715,454.624268 590.010193,422.660156 
	C570.959412,382.159790 575.675232,343.424408 600.133789,306.190918 
z"/>
</svg>